P2
# Image auto-saved to PGM format
10 10
255
255 255 255 255 255 255 255 255 255 255
0 0 0 0 255 255 0 0 0 0
0 0 0 0 255 255 0 0 0 0
0 0 0 0 255 255 0 0 0 0
0 0 0 0 255 255 0 0 0 0
0 0 0 0 255 255 0 0 0 0
0 0 0 0 255 255 0 0 0 0
0 0 0 0 255 255 0 0 0 0
0 0 0 0 255 255 0 0 0 0
255 255 255 255 255 255 255 255 255 255
