P2
# Image auto-saved to PGM format
10 10
255
27 27 27 27 26 26 27 27 27 27
28 28 28 27 27 27 27 28 28 28
0 0 0 28 27 27 28 0 0 0
0 0 0 28 27 27 28 0 0 0
0 0 0 28 27 27 28 0 0 0
0 0 0 28 27 27 28 0 0 0
0 0 0 28 27 27 28 0 0 0
0 0 0 28 27 27 28 0 0 0
28 28 28 27 27 27 27 28 28 28
27 27 27 27 26 26 27 27 27 27
