P2
# Image auto-saved to PGM format
10 12
255
0 0 0 0 0 0 0 0 0 0
255 255 255 255 255 255 255 255 255 255
0 0 0 0 255 127 0 0 0 0
0 0 0 0 255 127 0 0 0 0
0 0 0 0 255 127 0 0 0 0
0 0 0 0 255 127 0 0 0 0
0 0 0 0 255 127 0 0 0 0
0 0 0 0 255 127 0 0 0 0
0 0 0 0 255 127 0 0 0 0
0 0 0 0 255 127 0 0 0 0
255 255 255 255 255 255 255 255 255 255
0 0 0 0 0 0 0 0 0 0
